<?xml version="1.0" encoding="utf-8"?>
<!DOCTYPE svg PUBLIC "-//W3C//DTD SVG 1.1//EN" "http://www.w3.org/Graphics/SVG/1.1/DTD/svg11.dtd">
<!-- Generated by geo2svg 4.0.0. https://d3js.org/d3-geo-projection/ -->
<svg version="1.1" xmlns="http://www.w3.org/2000/svg" xmlns:xlink="http://www.w3.org/1999/xlink" width="960" height="960" viewBox="0 0 960 960" fill="none">
  <path stroke="#000" stroke-opacity="0.3" d="M219.1,431L218.8,430.4M493,810.7L493.3,807.7L497.3,804.6L500.3,802.3L502.2,800.9L503.7,799.7L505.9,798.1L508.4,798.1L508.7,798.1L510.9,798.1L513,798L516,798L516,797.1L516,796.3L515.9,794.1L515.9,792.4L515.9,791L518.8,790.6L518.8,790.5L518.8,789.1L518.7,787.8L518.7,787.7L518.7,787.6L517.1,782.3L515.5,778.5L513.6,774L510.7,767.1L509.6,764.6L502.6,747.8L497.4,735.3L496.3,732.5L497.4,732.5L497.7,734L499.6,734L499.6,732.5L521.7,732.2L543.4,731.7L558.8,731.3L589.1,730.4L598,730.2L598.2,739.1L598.7,757L599.2,757L599.4,762.9L600,773.2L600.1,773.2L600.6,779L601.1,784.1L598.8,796.7L598.4,797.8L598.3,798.2L597.9,800L597.5,801.1L597.1,802.6L596.7,803.8L596.7,803.9L596.3,805.1L596.2,805.4L596,805.8L596,805.9L595.7,806.7L595.5,807.4L595.3,808.2L595.1,808.9L594.9,810.1L593.4,811.5L591.6,811.2L591.6,812.2L591.4,813.1L590.6,813.1L589.7,814.1L588.8,816.6L589.6,817.8L590.4,819L583.3,819.2L580.6,819.2L579.4,819.2L578.6,819.3L578,819.3L576.4,819.3L575.2,819.3L574.3,820L574.3,821.2L574.3,822.3L573.6,823.8L573.6,824.5L572.5,825.3L572.2,825.8L571.5,826.8L570,826.8L570,827.5L568.6,828.3L568.3,829.1L567.9,829.6L567.6,829.6L567.6,830.4L567.2,831.1L567.2,831.8L566.9,832.5L566.8,832.5L565.7,833.7L565.5,834L565.3,834.8L564.8,835.8L564.5,836.9L565,838.4L563.8,839.3L563.2,839.7L563.1,839.8L562.9,840M391,532.2L389.4,534.9L388.3,533.6L385.8,534.7L386.1,535.6L380.4,534.8L376.3,533L374.8,534L374.8,531.5L372.3,530.2L370.6,528.4L367.8,526.1L368.1,524.3L367,523.1L368.3,521.2L367.4,519.6L366.3,518.4L365.7,515.2L364.4,514L363.7,511.4L360.7,509.4L361,507.7L366.3,502.5L371.9,501L372.4,500.3L373.7,499.6L377.2,499.7L381.3,496.9L386.4,495.8L396.1,495.4L400.5,493.8L414.6,479.4L423.7,470.1L426.3,470L432.6,470L432.6,467.1L432.6,465.6L435.5,465.6L435.5,462.2L437.9,462.2L438,455.5L459.8,433.4L461,434.4L461.4,436.7L463,437.3L463.9,438.8L465.4,438.5L467.2,439.8L468.6,437.5L474.6,437.8L478.8,442.3L480.2,446.7L481.9,448.1L481.8,450.8L482.8,452.6L461.8,474.2L458.8,478L459.6,479.2L458,480.6L458.7,482.5L458.3,484.4L459,487.3L458.3,487.9L458.4,491.3L456,493.9L456,495L454,497L452.9,497L452.2,495.9L450.2,495.8L450.1,497.3L447.9,497.6L447.2,501L446.2,501L445.7,498.2L444.3,497L443,499.1L441,497.7L439.7,498.2L439.5,500.5L441.8,501.4L440.1,503.3L439.8,505.8L436.5,505.1L435.2,509.5L433.7,507.9L432.1,508.3L432.2,510.9L429.6,511.1L428.4,512.3L427.8,513.1L425.6,515.3L426.1,517.7L425,518.5L421.7,522.8L421.4,524.8L419.8,527.2L419.3,527.7L417.5,526.4L416.2,527.3L413.9,526.6L412.3,527.5L410.1,528.2L409.2,529.1L406.3,528.5L403.6,529.7L402.4,531.1L400,530.2L398.2,530L396.7,531L391,532.2M166.9,377.4L169.9,375.4L172.4,375.8L174.6,375.2L179.6,379.8L187.5,387L190.3,388L193.4,389.2L194.6,389.9L198.4,389.6L201.3,389.9L201.7,392L204.8,394.3L205.6,396.5L207,397.4M211.9,422.5L212,422.8M400.5,493.8L397.2,489.8L393.1,488.1L389.9,484.9L390,482.8L387,477.7L383.3,471.7L381.9,468.6L382.6,467.4L381.9,465.4L379.7,462L379.1,459.5L378.9,459.2L373.7,448.2L373.7,448.1L374.7,446.3L373.1,444.2L373.4,443.1L376.3,443.9L378.6,446.6L380.2,444.9L377.1,438.9L380.1,437.8L381.8,438.4L382.1,436.9L384,437.9L385.1,436.3L385.7,434.9L388.6,435.1L390.8,431.4L391.8,432.6L394.6,433.2L397.6,430.1L398.3,428.5L400.3,430L402.5,430.2L407.5,433.1L409.1,434.9L412.1,435.6L415.5,434.2L416.4,435.6L417.6,434.4L419.9,435.9L424.5,434L424.9,433.1L432.2,430.3L431.9,427.9L432.8,426.6L435.7,425.9L437.6,424L437.6,422.2L439.2,421L441.8,420.9L444.1,424.2L446.5,425.6L447.4,424.3L450.3,424.5L451.9,425.7L452.1,427.4L456.3,428.5L456.1,430L458.7,431.8L459.8,433.4M93.5,202.1L112.1,202.8L130.5,203.5L130.4,206L137.9,206.3L177.7,207.5L178.1,210.9L179.1,211.9L178.5,213.8L176.2,214.6L175.7,219.9L176.8,225.7L176.6,230.8L178.6,230.8L178.4,234.8L180,234.8L179.9,243.5L180.2,247.9L179.7,253L176,252.7L176,254.2L169.1,253.7L167.5,255.2L166.1,255.2L166,260.3L165.2,260.3L164.9,264.8L166.3,264.9L166.2,267.8L167.6,269.3L167.6,272.1L168.9,273.7L168.8,278.1L170,278.1L170.6,282.4L169.2,282.3L169.1,283.9L166.9,286.8L166.4,288.6L163.9,288.5L163.7,292L163,292L163.1,296.4L162.4,298.7L164.5,300.1L164.5,300.7L165.2,301L165.1,303.9L167.2,306.5L170.5,306.5L170.4,307.4L171.1,308L171,311.7L173.2,313.9L173.1,316.4L176.1,316.4L178.5,318.6L178.7,319.4L181.6,320.2L182.9,321.8L173.5,321.5L166.6,321L162.6,320.9L162.6,321.5L162.5,322.4L158.2,322.1L158.1,325.2L150,325L147.7,324.9L139.8,324.8L139.8,327.8L129.5,327.3L127.7,329.2L126.7,328.2M361,507.7L356.4,512.3L357.5,513.1L357.1,517L352,516.9L349.5,519.2L330.4,538.2L329.2,537.1L312.5,528.3L312,526.6L310.3,523.3L308,520.4L306.2,520.8L305.1,519.1L306.7,515.6L304.3,513.4L305.3,511.7L304.3,509.1L306.1,507.7L307.3,504.8L304.7,502.3L306.8,499.2L306,498L306.4,497.7L320.4,483.9L323.8,480.4L326.6,477.6L327.3,476.9L326.4,476.6L325.8,471.5L330.8,468.9L338.8,465.1L339.4,464.8L350.1,459.6L356.8,456.4L373.7,448.2M404.7,89.2L388.8,89.2L345.1,89L303.3,88.5L294.6,88.4L295,63.6L294.8,63.6L295.2,40.7L295.3,28.6L294.7,28.6L295,11.1L295.7,11L295.8,6.3M463,437.3L465,434.2L466.7,433.2L468.3,430.7L467.1,429.2L467.8,427.3L467.2,423.9L468.2,422.2L465.2,419.8L463.1,419.6L463.2,418.3L459.7,416.3L458.5,413.9L459.9,408.5L456.3,402.3L453.9,401.6L452.5,400.2L450.4,400.1L449.1,401.3L447.2,401.1L446.8,398L445.2,397.6L444.2,394.9L443.8,397.1L440.6,396.5L440.7,395.6L438.3,395.1L437.4,392.3L436.5,392.7L433.8,390.9L434.4,387.9L436,387.3L434.6,385.5L435.3,384.6L432.3,382.1L433,381.3L433.2,378L434.1,375.7L435.7,374L434.5,371.2L439.3,369.5L438.7,367L439.7,365.8L439.7,363.5L440.8,362.4L440.8,360.5L437.2,354.6L436.2,351L434.7,350L435,343.7L436.2,343.2L437.8,339.5L437.3,338.9M578.2,463.3L571.4,463.4L570.3,463.5L536.8,464.3L502.7,464.8L501,462.3L496.7,463.6L495.8,461L494.1,460.2L491.3,456.1L488.4,454.6L486.5,455.5L482.8,452.6M220.4,419.3L220.7,419.2L220.8,419.2L221.1,419.2L221.5,419.2L221.9,419.1L222.2,419.2L222.5,419.2L222.6,419.2L222.7,419.1L223.3,418.7L224,418.6L224.2,418.7L224.7,419.1L225.6,420L225.8,420.6L227.6,421.4L228.4,423.5L228.5,423.5L229.8,425L230.3,425.5L230.6,425.8L231.1,427.7L232.8,427.6L234.2,429L240.3,429.7L241.6,429.8L244.9,432.7L244.3,434.3L244.2,435L247.3,437L249.7,437.6L249.9,437.5L250.7,437.3L251,437.2L252.3,436.9L254.6,436.2L255.4,435.9L260.1,434.6L266,432.9L269.4,431.9L280.6,428.6L280.6,428.7L280.5,436.1L280.4,440.1L280.2,456.4L281.3,457.7L284.5,458.2L285.2,460.5L286.8,462.6L271,462.3L256.1,461.8L255.2,462L252.2,463.8L251.5,464.2L250.7,464.7L248.8,463.4L246.5,464.1L244.8,463.4L241,463.9L240.8,464M433.2,378L428.4,374.1L428.9,372.7L428.3,369.3L427.4,368.7L424.1,368.9L420.3,370.5L413.5,374.9L403.1,367.3L400.4,365L398.9,365.9L398.9,359.5L399,340L402.1,337.3L407.4,332.6L408.8,332L409.2,329.9L411.9,326.7L412,324.6L414.3,323.3L413.4,322.2L414.1,320.1L413.2,318.2L412.2,316.7M398.9,359.5L394.8,360.9L390.4,361L388.4,360.4L385.6,362L380.4,363.3L378.5,364L374.1,363.9L371.2,363.2L368.2,365.9L365.2,365.7L363.3,368.2L361.9,368.2L359.4,369.2L359.3,370.2L356.5,370.8L355.6,374.8L354.7,376.4L349.9,378.8L346.2,379.8L345.3,380.8L344.9,381.7L340.7,381.7L337.3,384.8L334.9,386.6L333.8,388.4L332.3,387.6L327.6,388.7L325.8,387.9L324.2,382.9L323.3,380.3L323.4,371.6L323.4,370.4L323.5,359.3L330.2,357.4L331.5,358.7L333.4,357.1L334.8,357.7L335.7,355.9L337.6,355.1L337.9,354.8L340.4,354L342.9,355.1L344.7,354.7L348,356.1L351.2,358.5L355,360L358.8,360L360.9,359.2L364.4,359.3L366.4,358.3L369.9,357.5L372.1,357.3L376.7,355.6L379.6,355.9L383,354.5L384,352.5L385.8,351.8L387.7,347.5L393.6,346.5L395.5,342.3L395.9,339.7L399,340M255.6,277.7L253.3,281.3L252.4,284L253.8,288.3L253.1,288.8L252.5,290.1L254.5,294L252.9,294.6L254.9,295.9L256.3,298.7L256.7,301.2L259.9,301.4L261.6,305.4L261.5,307.5L263.8,309L261.9,309.8L260.2,313.1L260.6,316.2L242.9,315.7L227.1,315.5L221,315.3L215.6,311.3L214.9,308.6L215.8,306.4L213.6,305.3L211.2,302.9L209.4,302L209.9,299L208.9,295.1L209.2,293.2L211,292.8L210.6,291.4L210.9,289.8L208.1,287.5L208,286.2L203.4,286.6L203.1,286L198.6,284.5L196.3,285L195.1,282.8L189.2,278L188,275.2L188.8,272.1L189.9,271.8L190.6,269.6L187.4,268L191,268.1L205.8,268.3L216.1,268.7L233.6,269L238,269.1L238.1,266.2L248,266.5L247.9,269.5L257.2,269.7L258.8,263.2L258.5,257L260.1,254.6L260.1,254.2L253.2,254.2L251,254.9L249.4,254.3L248.8,251.7L249.4,247.3L250.7,246.2L249.8,244.7L250.2,243.2L251.7,242.8L251,241.2L249.4,240.9L252.4,239.8L253.8,237.8L249.8,232.5L247,229.4L247.7,227.6L245.9,227.6L244.6,226.2L245.1,224.4L244.2,223.2L246.5,219.3L246.2,218.9L259.5,219.1L264.9,219.2L267,218.8L269.1,217L269.5,213.8L271.2,210.9L273,209.2L277.3,209.5L278.1,208.1L278.1,205.1L281.3,202L281.4,198.3L282.1,197.6L288,197.7L290.3,195.6L292.5,195.6L293.7,192.6L296.2,192.7L296.2,196.3L298,197.1L299,200.2L297.8,202.8L296.4,202.8L296.4,204.9L294.9,206.4L294.8,209.3L295.5,209.3L295.5,212.2L294.8,212.2L294.1,216.6L293.9,218.1L295.4,218.1L295.2,221L297.7,222.7L299.1,222.7L299.9,225.7L300.7,225.7L302.5,228.7L306.2,231.5L306.2,233L307.7,234.5L309.2,234.5L309.2,235.9L310.6,236L310.8,238.5L312.2,238.6L312.2,240.1L313.7,240.1L314.9,243L316.3,243L316.3,245.9L319.3,246.7L320.9,249.1L320.7,250.3L318.5,250.3L318.5,252.1L315.2,253.2L315.1,256.2L308.1,256.1L308.1,257.4L305.2,257.4L303,256.7L302.2,261.1L300.4,262.2L299.9,264.5L300.6,266.2L298.7,267.8L297.6,272L294.8,274.8L291.7,275.6L289.5,275.3L288.6,276.9L285.1,276.8L282.5,278.1L280.2,277.8L278.9,276.6L277.8,279L277.3,277.9L274,277.9L272.9,277.9L264.2,277.9L255.6,277.7L257,271.9L257.2,269.7M403.1,367.3L397.7,370.3L394,371L390.7,373.3L388.4,377.8L383.2,383.7L378.4,391.8L374.8,396.6L373.9,399.4L372.2,400.5L371.7,402.8L370.4,403.7L368.6,407.2L367.3,409.4L364.9,410.6L363.6,410.6L361.6,413.2L362.7,413.4L363.7,415.7L363,416.2L361.9,418.4L359.9,419.9L359,421.7L357.9,421.6L356.2,423.8L354.2,425.1L352.7,428L352.6,428L345.4,419.7L344.8,418.6L336.9,409.9L331.7,403.6L331.1,402.9L330.1,401.8L326.5,390L325.8,387.9M224.4,402.9L227.8,402.9L228.8,403L230.3,403.4L232.4,405.4L233.1,405.8L234.1,406L235.4,405.7L238.2,404.4L241.8,403.3L246.8,402.7L249.7,404.1L251.5,404.8L253,405L255.7,404.5L256.7,403L258.4,404.4L259.4,406.9L261.5,407.6L265.5,407.4L267,406.9L271.1,403.7L271.3,400.9L272.7,400.3L274.6,401.3L275.5,400.1L279.2,400.5L279.8,402.6L279,403.2L278.8,406.4L279.8,405.9L280.9,408.4L279,412.5L280.8,417.9L280.1,418.4L279.7,421.1L278.9,423L280.2,424.9L281,424.2L282.5,425.3L280.6,428.6M140.1,1.9L138.5,3.7L138.7,6.4L137.1,8.9L136.1,11.6L134.1,11.3L132.4,13.7L130.3,12.7L129.5,15.8L125.4,18.6L126.4,21.3L127.6,22.1L126.4,23.5L127,27.9L128.3,30.4L127.4,32.8L125.9,34.8L126.4,38.4L125.2,38.4L123.3,42.2L126.1,42.4L126.1,44.7L125.1,46.1L125.9,47.5L128.5,48.5L129.4,54.7L130.9,55.9L130.1,58.9L128,60L128.7,61.4L126.9,63.9L118.6,63.7L118.9,55.2L111.8,55L110.2,54.7L98.4,54.3L96.6,54.3M323.5,359.3L319.6,346.6L319.1,345.1L318.8,344.2L317.6,340.9L317.2,339.7L316.6,338L314.8,338.5L315.3,338.5L317.9,331.1L318.1,328.1L319.1,326.6L321.5,324.9L321.2,323.6L321.2,321.5L323,318L323.2,318L326,317.8L326.8,316.9L330.6,316.1L330.9,313.4L334,314.3L334.8,313.7L337.3,314.5L338,312L339.2,312.5L341,309.7L342.1,310.1L344.8,308.9L347.4,309.3L349.4,311.6L351,310.8L351,313L354.2,315.4L358,316.3L360.4,318.6L361.8,317.2L364.4,316.8L366.5,314.2L367.7,313.3L370.5,307L378.9,307.6L385.8,307.5L385.8,306.8L390.2,306.8L392.7,305.3L393.4,303.1L395.1,303.1L404.5,303.1M349.5,586.3L349.1,583.5L351.1,581.3L353.4,581.3L356.2,580.1L356.2,573.8L356.2,564L355.7,563.9L335.4,543.4L330.4,538.2M191,268.1L190.9,262.8L191.7,261.3L191.6,255.4L191.8,248.2L180.2,247.9M176.8,225.7L180.2,225.7L224.7,226.9L228.2,227L235.6,227.4L239.8,227.5L245.9,227.6M126.9,63.9L138.8,64.3L139.6,64.8L141,66L140.3,67.2L140.6,69.9L141.6,70.9L142.8,75.2L143,77.9L142,79.1L145.3,85L143.4,86.7L143.5,91.2L142.1,94L140.7,93.6L140.7,95.3L142.1,96.8L143.7,97.2L144.9,101.8L143.8,102.1L142.3,105.9L141.1,106.6L141.5,108.7L139.9,109.2L138.8,111.5L136.5,110.9L132.9,107.7L130.4,109.9L128.1,109.4L130.2,116L131,116L132.5,119.9L131.9,123.2L133,125.3L133.3,129.7L133.2,131.1L132.8,143.9L132.4,153.3L131.5,179.6L130.5,203.5M736.5,948.4L736.4,945.8L736.3,937.5L734.8,902.4L736.7,902.3L735.9,886.1L734.9,866.9L737,866.8L739.8,866.7L747.8,866.3L769.2,865.3L786.9,864.5L786.9,864.3L821,862.7L840.6,861.4L846,860.7L857.7,860.1M760.7,624.6L753.5,625L753.6,626.5L708.9,628.4L655.1,630.2L620,631.2L598.4,631.6L580.6,631.9L576.2,632L574.7,633.2L567.7,633.1L567.8,625.7L569.7,625.2L568.7,617.5L566.5,615.8L567.7,613.4L565.1,610.9L563.6,605.9L563.7,604.1L562.2,602.4L561.6,597.8L562.7,596.7L562.5,594.3L559.2,590.8L558.9,588.3L557.7,586.1L556.9,581.6L559.3,578.5L559,576.9L557.3,576.6L556.5,574.5L554.7,573.6L554.1,572.2L555.7,571.2L555.8,569.7L554.2,568.3L551.3,568.9L549.6,568.2L549.4,565.9L546.7,563L547.4,559.2L546.3,557.3L543.2,555.7L543.2,552.5L544.4,551.8L540.6,548.9L539.2,546.1L539.8,544.9L536.8,542.4L539.3,540.9L538.9,538.6L537.2,537M497.4,735.3L489.5,735.4L489.5,733.2L485.6,733.2L467.4,733.2L467.3,728.8L464.5,728.9L464.6,726.6L455.8,726.7L455.8,724.5L450.8,724.5L448.3,724.5L448.3,720.8L448.2,706.8L446.7,706.7L446.7,705.3L440.9,705.7L441.5,696.4L439.6,696.4L432.1,696.9L432.1,688.1L420.4,688L420.4,679.2L414.5,679.1L414.5,670.2L411.8,670.2L404.9,670.2L404.9,667.3L403.4,667.2L403.5,665.7L401.9,665.7L401.9,664.2L400.5,664.2L400.5,662.8L399,661.4L397.5,661.4L397.6,652.5L388.8,652.5L388.8,634.8L415.4,634.8L427.8,634.7L442.5,634.7L457.4,634.5L460.2,634.5L461.7,634.5L465.3,634.5L465.8,634.5L466.8,634.5L468.2,634.4L482.1,634.3L502.6,634.1L526.8,633.8L529.9,633.5L537.6,633.6L564.2,633L567.7,633.1M598.4,631.6L598.5,640.4L597,640.5L597.1,643.4L600,643.3L600.1,646.3L598.7,646.4L598.7,649.3L598.7,652.2L599.2,655.2L599.5,665.9L599.2,666.6L599.9,687.2L600.3,702.3L600.3,707.5L600.5,713.9L600.9,730.2L598,730.2M439.3,564L443,563.9L442.9,572.8L447.3,572.8L447.3,573.9L447.3,580.2L447.4,583.3L447.4,586.2L442.9,586.1L443,593.6L443,599.5L442.4,599.5L442.5,606.8L442.5,608.3L442.5,612.7L442.4,620L442.5,634.7M221,315.3L216,315.1L214.5,317.5L216.5,321.3L215.8,322.2L218.1,326.1L217.6,327.6L216.1,327.4L214.6,331L210.7,337.3L197.7,340.7L196.3,336.8L192.7,336.2L191.3,334L191.3,332.1L189.6,329.9L188.5,326.6L182.9,321.8M404.6,236.9L403.4,238.3L393.2,238.4L393.3,235.5L394.7,235.5L395.4,232.5L396.1,232.5L396.3,220.8L396.9,217.9L396.2,217.9L396.2,214.9L392,212L390.6,207.5L389.1,207.4L389.1,204.5L388.4,204.5L388.5,200.1L385.6,200.1L385.6,197.9L383.4,197.2L378.3,197.1L378.3,196.4L375.4,195.7L375.4,194.6L373.2,193.9L372.5,191.6L370.2,190.9L369.1,187.9L367.4,187.9L366.9,186.5L366.7,185L365.3,185L365.3,183.6L360.2,182L360.2,179.8L356.7,179.8L355.2,178.9L354.4,177.6L348.7,177.4L348.7,176.7L345.8,176.7L345,178.1L343.3,178.1L343.3,180.5L340.4,181.2L340.4,182.7L338.9,184.1L337.4,184.1L337.4,188.4L335.9,189.1L333,189.1L333.1,187.6L331.6,187.6L331.7,186.1L327.2,186.1L327.2,184.7L325.3,184.7L324.3,184.7L324.4,182.5L322.8,182.4L323.1,163.2L308.6,163.1L302.6,163.1L303,157.8L303.2,149L303.3,141.9L303.7,118.3L303,115.1L303.3,88.5M607.6,875.1L607.8,874.1L608.5,870.2L608.9,868.3L612.3,868L614.7,866.5L614.6,865.1L614.5,863L626.8,862.6L626.9,864.4L633.7,866.8L636.5,867.8L637.4,869.7L645.6,869.4L649.4,869.5L650.2,869.5L653.3,869.4L655.1,869.7L671.5,869.2L690,868.5L698.3,868.2L725.4,867L732.6,867L734.9,866.9M213.8,438.2L212.7,438.2L212.2,438.2L211.5,438.2L211.2,438.2L210.3,438.2L209.8,438.1L209.2,438.1L209,438.1L208.8,438.1L207.6,438.1L207.5,438.1L205,438M279.2,400.5L279.6,397L282.8,394.8L283.8,392.5L283.4,390.5L285.4,388.7L288.1,383.9L289.9,384.4L290.6,384.4L292.8,386.8L298.1,387.3L301.6,386.5L302.6,385.6L304.2,384.9L306,385.7L309,385.3L313.8,383.9L315.3,382.5L317.9,382.1L320.4,380.3L321.7,381.2L323.3,380.3M331.1,402.9L331.1,403.4L330.9,422.2L331.1,435.2L330.8,437.2L329.5,436.8L328.2,436.9L325.3,435L323.5,435.4L322.6,436.9L320.1,436L319.4,437L317.2,437.5L316.1,436.7L316.1,437.9L313.9,438.5L312.4,438.9L312.1,440.5L310.6,440.3L309.9,442.2L308.7,441.3L305.6,444.4L305.3,444.7L302,448L286.8,462.6M448.3,724.5L443.1,724.9L439.6,722.5L436.4,719.6L434.1,719.3L431.7,717.3L425.7,717.3L421.1,714.8L418.6,714.1L416.7,711.4L414.7,710.6L412.8,711L410.6,708.6L409.4,709.1L406.3,708.8L402,705.8L401,706L396.8,703.3L394.2,705.3L393.4,704.8L390.8,707L389.1,711.6L387.3,712.5L383.8,711.7L379,713.7L377.9,712.9L377,714L377.6,716L379.7,718.3L380.5,721.7L379.7,724.2L378.3,724L377.5,722.1L375.3,720.5L371.3,717.6L370.9,717.4L368.9,716.1L363.6,715.2L362.2,715.6L358.8,717.2L357.1,716.7L356.2,717.8L354.8,717.3L352.2,718.6L350.9,717M258.5,526L260.5,522.6L261.7,522.7L263.4,520.6L263.9,520.2L266.1,520.1L267.6,519.2L269.1,520.9L270.7,519.8L272,521.9L272.1,524L273.1,525.7L275.7,527.7L278.6,531L283,535.8L284.8,535.2L287.3,539.3L284.6,540.4L285.8,542.7L287.8,544.5L290.1,544.5L290.8,546.3L295.1,547L297.9,551L297,556.6L299.2,558.4L299.7,559.5L298.3,561.9L303.8,561.6L305.4,565.1L313.7,573.7L320.1,580.3L320,585.6L321.1,586.8L323.9,585.8L324.7,583.6L327.1,585.3L329.9,581.7L332.4,583.8L334.3,583.6L336.3,585.2L337.2,587.2L340.4,589.5L342.7,592.7L344.1,593.1L347.2,592.7L347.2,590.3L346.3,587L345.1,585.4L344,581.9L349.5,586.3L349.2,587.9L353.6,592.8L351.3,596.4L350.2,597.1L352.3,603.1L356.6,604.3L356.4,606.1L360.6,609.7L365.6,612.4L365.7,613.3L367.9,614.6L369.3,616.6L371.3,615.9L375.2,617.1L375.5,618.7L377.2,619.8L377.2,621.2L378.9,622.9L382.1,623L384.8,625.9L385,627L383.6,629.3L384.7,631.3L386.6,631.7L387.1,634.8L384.1,634.8L345.6,634.4L344.8,634.4L307.7,633.7L294.5,633.4M235.8,463.3L235.6,463.3L235.3,463.3L234.3,464.6L233.6,464.4L232.2,464.1L231.5,464.4L230.9,465.1L230.5,465.5L230.1,465.8L229.3,466.9L229.3,467L229.2,467.4L229,468.4L228.9,468.9L229.1,471.4L228.2,474L230.2,477.4L228.8,478L231.2,479.5L231.9,481.4L231.7,488.6L226.6,488.5L224.5,488.4L224.5,491L218.4,491.1L218.8,495.1L220.5,498.6L220.2,499.2M450.8,724.5L451,740.3L451.1,766L451.3,770.9L450.1,773.3L450.4,775.4L449.4,776.1L448.3,777.8M216.5,321.3L217.2,322.5L220.1,324.2L221.9,323.3L224.8,324L227,329.1L227.6,332.6L228.8,334.2L229.8,338.7L234.1,344.2L233.9,346.7L235.1,345.9L236.7,349.5L238.6,357.3L238.6,357.5L238.4,359.6L236.6,365.8L240.7,372.8L241.5,376L241.2,377.4L235.8,377.3L230.7,377.2L230.5,378.6L231.3,381.6L229.5,381.5L229.1,382.5L230.6,385.8L229,390.9L230,392.1L230.5,393.4L229,393.4L228.5,393.4L227.1,393.3L226,393.3L225.9,393.3L225,393.3L222.9,393.2L222.6,393.2L213.8,393L216.6,392.8L217.7,387.5L217.2,383.8L215.4,382.4L214.2,380.2L214.4,378.3L215.1,377.9L213.8,374.9L210.9,372.1L210.6,369.9L209.2,367.5L207.3,365.6L208.7,363.7L207.4,362.4L204.9,360.9L203.7,358.3L203.7,355.7L201.9,354.8L200.6,352.5L197.9,351.6L196.9,349.2L196,347.6L197.5,345.2L197.7,340.7M404.2,277.9L401.8,278L392.8,278L388.7,277.9L379.5,277.9L361.4,277.9L354.2,277.9L351.6,278.8L347.8,280.6L341.8,286.1L338.1,288.2L336.7,291.4L333.5,292.4L333.6,293L329.6,296.3L327.2,298.3L327,301.7L326.1,303.2L325.1,304.7L323,308.1L321.1,308.8L318.1,308.2L315.3,305.6L311.5,308.1L309.2,308.1L304.4,305.8L304.4,298.2L304.6,286L306.2,283.4L305.7,281.8L307.8,280.6L309.4,280.7L310.2,279.4L310.5,277.7L312.6,275.1L314.3,275.8L314.5,274.1L316.7,271L318.8,270.9L320,269.7L324.9,269.9L327.3,267.6L333.3,267.1L339.4,265.1L340.2,265.7L345.7,264L349.1,260.9L348.8,260.3L351.9,257.4L353.8,256.5L356.2,257L359.7,256.9L361.4,257.9L363,260.9L363,262.8L365.3,264.7L404.4,264.9M590.4,819L591.7,820L593.5,821.4L594.3,822.1L594.5,822.2L596.7,823.9L599.5,826.1L599.8,826.4L599.9,826.4L599.9,826.5L603,830.4L607.9,836.4L608.9,836.9L611.6,837.5L611.9,842.1L617,842.8L618.2,844L618.6,844.3L622.2,847.2L618.6,853.1L614.4,860.1L614.5,863M314.8,338.5L314.5,338.6L312.2,338.4L311.1,338.3L308.2,338L306.8,337.8L305.4,337.7L304.5,337.6L303.1,337.4L302.8,337.4L301.9,337.3L301.6,337.3L301.4,337.3L299.4,337.1L298.7,337L297.2,336.8L295.9,336.7L295.1,336.6L294.7,336.6L287.8,335.9L289,334.2L289.3,316.5L293.6,316.6L293.7,309.5L294.4,309.1L296.7,307L301.5,304.2L302.4,303.9L304.4,305.8M393.2,238.4L370,238.2L366.8,238.4L353.9,238.4L353.4,240.4L351.8,241.3L348.7,238.1L346.4,236.9L344.8,237.1L343.1,237.9L341.9,236.9L341.3,234.1L339.7,234.3L336.9,231.2L333.7,233L332.1,234.9L332.1,238.6L330.9,241.6L328,244.4L326.2,244.9L320.9,249.1M293.7,192.6L293,192.2L293.6,188.3L296.1,188.7L297.8,186.8L299.1,186.6L299.3,183.2L300.5,181.5L300.6,180.2L298.6,177.9L300.1,178L301,176.5L298.3,173.6L294.6,172.6L291.5,172.6L290.5,167.9L291.3,165.1L289.5,164.3L289.5,162.9L302.6,163.1M599.8,826.4L599.6,824.6L601.4,824.5L601.2,820.9L604.9,820.8L604.9,816.1L606.3,815.4L609.2,814.3L609.2,813.4L609.1,811.2L609.1,809.7L611.9,809.6L613.4,809.6L615.5,809.5L616.4,809.5L616.8,809.5L619.6,809.4L621.1,809.3L624.4,809.3L625,810.8L625.5,810.7L627.4,810.6L627.4,810.7L629.6,810.6L631,810.5L632.1,810.6L633.2,810.6L637,810.4L638.1,811.9L641.8,811.8L650.4,811.6L650.5,811.6L651.4,811.5L652.6,811.4L653.7,811.4L654.1,811.4L659,811.2L661.8,811.1L661.7,808.1L666.1,808L679.3,807.6L689,807.3L690,807.3L696.6,807L701.2,806.9L714.3,806.4L735.6,805.4L767.4,803.9L796.7,802.6L796.4,798.2L806.8,797.5L837.1,795.9L868.8,794.1L870,794M256.7,403L256.8,402.6L258.3,401.9L262,403.6L266.3,401L268.6,401.3L270.4,396.5L271,393.8L272.5,392L276.6,390.2L277.7,387.6L277.9,381.8L277.6,380.1L278.5,378.4L281.3,375.5L284.3,373.7L285,370L283.5,366.6L285.6,365.9L285.8,363L282.4,361.4L281.8,360.3L282.5,358L283.7,357.8L284.2,357.2L283.8,356.7L285.3,355.4L284.9,353.4L284.8,352.6L285.4,352L285.7,351.4L285.9,350.9L285.7,349.8L284.9,349.1L284.4,349L282.6,349.5L281.5,346.7L280.5,344.5L279,344.9L276.6,341.9L276,340.2L278.2,337.4L278.5,335.6L287.4,335.8L287.8,335.9M352.7,428L360.1,435L369.4,444L373.7,448.1M286.8,462.6L285.8,464.2L287.5,465.7L286.7,468.6L288.5,471.7L291.5,472.1L290.5,475.1L291.9,480L288,482.7L287.8,486.2L290.4,489L291.7,495.7L293.4,496.2L293.4,494.8L295.8,492.9L297.9,494.8L300.3,494.8L301.6,493L303.2,495.5L305.2,495.8L306,498M278.5,335.6L279.4,332.9L277.2,330.7L275.9,332.4L273.9,332.8L272,332.7L270.9,328.7L269.1,328.6L268.6,325.4L269.2,323.7L267.2,321.7L264.5,323.1L262.1,321.1L263.9,318.1L260.6,316.2M277.8,279L277.2,279.3L277.9,282.3L276.8,283.5L277.6,285.8L278.1,290.4L278.3,291.8L278.5,292.3L278.8,294.4L279.6,295.9L279.6,296L279.1,297.2L280.4,299.8L279.3,301.6L278.5,303.1L279.2,307.7L280.8,308.2L280,309.9L280.8,314.3L280.8,317L282.1,313.7L283.6,311.8L285,311.9L288,310L290.4,309.3L293.7,309.5M177.7,207.5L176.3,205.5L176.5,199.2L174.9,197.4L175.9,195.2L175.1,192.1L173.9,190.5L174.4,187.8L175.5,186.4L174.8,183.5L175.3,181.7L174.3,179.9L172,178.6L169.5,178L168.5,176L171.6,174.4L175.4,173.4L179.9,174.4L183.6,170.2L184.9,170.8L193,168.8L194.4,170.7L196.1,170.7L200.6,172.8L203.7,171.1L206.2,168.9L207.3,169.2L209.7,167.9L210.5,166.4L212.2,167.5L214.6,167.6L216.5,168.7L218.3,168.1L222.2,168.9L227,169.2L228.8,168.6L233.1,167.5L235.4,168.7L235.9,167.2L240.8,166.7L243.5,165.6L250.1,164.1L255.4,165.3L258.5,164.8L260.3,163.2L263.3,163.2L265.8,162.5L271.3,163.6L272.4,162.3L275.1,161.9L278,163.8L281,163.5L282.4,164.2L284.3,162.8L289.5,162.9M145.3,85L147.3,87.9L149.5,86.8L151.5,89.1L153.2,88.9L155.4,91.1L156.5,94.2L157.8,95.9L167.7,96.3L168.7,98L171.7,99.3L173,103.7L176.1,102.8L178.5,103L180.3,105.1L182.1,105L183.7,101.5L181.9,97.1L180.4,97.2L178.6,96L178.2,92.9L180,89L179.3,85.9L181.3,86.4L185.1,83.7L190.8,84.2L193.1,82.7L193.5,81.4L197.5,79.8L198.6,77.1L202.3,75.5L203,75.8L203.7,72.2L205.2,71.5L207.9,72.2L208.4,68.9L209.4,68L211,68.7L212,70.6L214.6,70.7L216.4,73L214.6,74.1L213.7,76.6L213.1,84.1L214.7,85.5L214.6,86.8L218.5,89.3L218.2,93.4L217.5,95.6L214.7,96.6L213.2,96.3L211.1,97.9L212.1,98.9L211.9,103.8L209.8,104.8L208.6,106.7L206.4,107.5L205.1,113L206,115.2L204.8,117L204.1,117.2L202.9,120.6L200.8,122.8L201.5,124.1L200.3,127.9L198,129.2L196.4,131.1L197.4,132.5L196.1,135.6L193.8,136.1L195.6,140.2L194.9,141.5L196.9,142L197.5,148.4L195.8,147.7L190.8,151L190.1,153.7L186.1,154.5L185.2,156.7L183.1,157.5L181.6,160.4L179.3,160.3L178.7,162L174.1,162.9L174.1,165.1L169.4,169.7L168.4,171.4L168.5,175.5L168.5,176M278.5,378.4L270.6,378.1L270.9,356.6L269.5,355.5L267.5,355.5L266.6,356.1L263.7,356.9L260.9,356.3L258.6,355.4L255.6,355.2L254,356L251,356.2L245.8,359.9L244.3,359.5L242.3,357L238.6,357.3M326.2,244.9L324.9,253L322.3,254.9L322.9,257.1L324.1,257.5L324.9,269.9M306.7,515.6L290.3,515.5L287.8,512.5L286.1,513.6L284.7,513.1L282.6,516.9L279.8,519.7L278.6,521.8L277.1,521.5L277.1,519.4L275.1,518.7L273.7,517.3L272,518L270.5,514.8L268.2,514.3L268.1,512.6L266.3,511.5L264.6,512L266.2,510.3L264.8,509.5L263.2,506L259.1,503.9L256.3,501L252.8,500.2L245.1,496.2L241.8,493.7L241.5,491.3L240.4,490.3L236.8,487.9L234.3,484.2L232.1,482.4L231.9,481.4M214.6,86.8L237.6,87.2L246.9,87.6L267.1,88L273.9,88.1L294.6,88.4M213.8,393L214.4,394.3M502.7,464.8L504,467.6L502.4,469L501.6,471.8L503.4,475.1L502,477L505.7,479.7L507.6,478.4L511.8,485.2L510.3,487L510.6,490.8L511.8,492.3L511.4,494.5L512.8,497.2L516.1,497L518,497.7L519.8,499.8L522.8,500.2L528,504.6L529.6,504.3L530.3,507.2L531.7,508.7L531.3,510.1L536.9,522.5L536.2,524.3L536.9,526.8L534.7,528L534.7,529.4L536.1,532L535.5,533.2L537.2,537L521.4,537.3L521.5,537.8L505.6,538L486.9,538L486.8,546.6L471.4,546.6L460.9,546.5L461,550.8L461,555.3L459.9,555.2L456.6,555.2L455.1,555.2L452.1,555.2L450.8,555.2L450.7,555.2L448.6,555.2L446,557.1L441.2,562L439.3,564L431.8,571.1L431.3,569.8L428.1,571L425.2,571.3L424.7,572.8L421,572.8L408,572.9L408,574.4L408,587.4L408,587.7L408,595.1L396.7,605.9L391.1,611.2L378.9,622.9M388.8,634.8L387.1,634.8M272,521.9L273.2,520.1L275,521.4L277.1,521.5"></path>
</svg>
